<svg width="19" height="19" fill="none" xmlns="http://www.w3.org/2000/svg"><path d="M18.124 18.527 16.704 5.3a.433.433 0 0 0-.425-.378h-2.627v-.805A4.12 4.12 0 0 0 9.535 0a4.12 4.12 0 0 0-4.117 4.117v.805H2.721a.433.433 0 0 0-.426.378L.875 18.527a.424.424 0 0 0 .095.331c.07.095.19.142.308.142h16.444a.381.381 0 0 0 .308-.142.424.424 0 0 0 .094-.331ZM13.227 7.31c.212 0 .378.166.378.379a.374.374 0 0 1-.379.378.374.374 0 0 1-.378-.378c0-.213.165-.379.378-.379ZM6.27 4.117A3.272 3.272 0 0 1 9.535.852a3.272 3.272 0 0 1 3.266 3.265v.805H6.27v-.805Zm-.426 3.194c.213 0 .379.166.379.379a.374.374 0 0 1-.379.378.374.374 0 0 1-.378-.378c0-.213.165-.379.378-.379Zm-4.07 10.814L3.1 5.75h2.32v.78a1.203 1.203 0 0 0-.805 1.136c0 .663.544 1.207 1.207 1.207.662 0 1.206-.544 1.206-1.207 0-.52-.331-.97-.804-1.135V5.75h6.53v.78a1.203 1.203 0 0 0-.804 1.136c0 .663.544 1.207 1.207 1.207.662 0 1.206-.544 1.206-1.207 0-.52-.331-.97-.804-1.135V5.75h2.413l1.325 12.375H1.774Z" fill="#fff"/></svg>