<svg width="70" height="70" fill="none" xmlns="http://www.w3.org/2000/svg"><g clip-path="url(#a)" fill="#fff"><path d="M29.508 59.26c-1.537.536-3.12.876-4.726 1.022a18.286 18.286 0 0 0 3.376-2.193 1.026 1.026 0 1 0-1.292-1.593c-2.82 2.286-5.35 3.089-7.44 3.178 1.585-1.482 3.496-4.172 5.753-8.788a1.026 1.026 0 1 0-1.843-.9c-3.368 6.888-5.97 9.238-7.066 9.238a.618.618 0 0 1-.2-.031c-.367-.125-.601-.704-.708-1.038-1.794-5.605 3.403-25.282 10.272-34.865l4.627-6.455c.26-.364.522-.885.735-1.466l.146-.397.067.023-.128.403c-.187.59-.299 1.162-.315 1.61l-.284 7.741a1.026 1.026 0 0 0 2.05.075l.241-6.577 1.43 4.14a1.026 1.026 0 0 0 1.939-.67l-.05-.145.004.008a1.026 1.026 0 1 0 1.757-1.06l-1.475-2.444a2.01 2.01 0 0 1-.227-1.516l2.32-9.26c.155-.622.01-1.261-.398-1.755a1.973 1.973 0 0 0-1.648-.72l-5.426.307a1.984 1.984 0 0 0-1.713 1.19l-3.01 6.863a2.01 2.01 0 0 1-1.108 1.06L14.545 18.36c-4.672 1.809-8.494 4.908-11.051 8.96-2.375 3.762-3.581 8.164-3.49 12.728.092 4.565 1.475 8.914 3.998 12.578 2.719 3.946 6.662 6.889 11.404 8.509 2.503.855 5.048 1.283 7.565 1.283 2.453 0 4.88-.407 7.212-1.22a1.026 1.026 0 0 0-.675-1.937ZM31.151 7.18l5.31-.3-1.786 7.132-5.672-1.938 2.148-4.894ZM5.692 51.462C3.397 48.13 2.14 44.168 2.056 40.006c-.084-4.162 1.013-8.17 3.173-11.592 2.32-3.677 5.799-6.493 10.058-8.142l7.97-3.086-4.33 2.834c-3.23 2.115-6.064 5.265-8.197 9.109-1.968 3.546-3.31 7.595-3.879 11.709a1.026 1.026 0 1 0 2.032.28c1.133-8.186 5.413-15.613 11.169-19.382l7.863-5.15-3.948 5.509c-3.251 4.535-6.499 11.844-8.687 19.55-1.905 6.71-2.675 12.473-2.156 15.876-1.023-.868-1.892-1.982-2.595-3.34-1.235-2.382-1.902-5.436-1.928-8.83a1.026 1.026 0 0 0-2.051.016c.028 3.604.716 6.78 1.966 9.354a19.695 19.695 0 0 1-2.824-3.26Z"/><path d="M48.15 21.477c-12.048 0-21.85 9.802-21.85 21.85 0 12.049 9.802 21.85 21.85 21.85 12.048 0 21.85-9.801 21.85-21.85 0-12.048-9.802-21.85-21.85-21.85Zm0 41.65c-10.917 0-19.798-8.882-19.798-19.8 0-10.916 8.881-19.798 19.798-19.798 10.917 0 19.799 8.881 19.799 19.799 0 10.917-8.882 19.798-19.799 19.798Z"/><path d="M48.15 25.608c-9.77 0-17.72 7.949-17.72 17.72 0 9.77 7.95 17.719 17.72 17.719s17.72-7.95 17.72-17.72-7.95-17.72-17.72-17.72Zm0 33.388c-8.64 0-15.668-7.03-15.668-15.668 0-8.64 7.029-15.669 15.668-15.669 8.64 0 15.668 7.03 15.668 15.669S56.79 58.996 48.15 58.996Z"/><path d="M48.15 30.635c-6.998 0-12.692 5.694-12.692 12.693 0 6.998 5.694 12.692 12.692 12.692 4.693 0 8.986-2.58 11.203-6.734a1.026 1.026 0 1 0-1.81-.966 10.637 10.637 0 0 1-9.393 5.649c-5.867 0-10.64-4.774-10.64-10.641 0-5.868 4.773-10.641 10.64-10.641 5.868 0 10.641 4.773 10.641 10.64 0 .375-.02.761-.063 1.148a1.026 1.026 0 0 0 2.04.22c.05-.46.075-.92.075-1.367 0-7-5.694-12.693-12.693-12.693Z"/><path d="M40.77 43.328c0 4.069 3.31 7.38 7.38 7.38s7.38-3.311 7.38-7.38c0-4.07-3.31-7.38-7.38-7.38-4.069 0-7.38 3.31-7.38 7.38Zm12.709 0a5.335 5.335 0 0 1-5.329 5.328 5.335 5.335 0 0 1-5.328-5.328 5.334 5.334 0 0 1 5.328-5.329 5.334 5.334 0 0 1 5.329 5.329Z"/></g><defs><clipPath id="a"><path fill="#fff" d="M0 0h70v70H0z"/></clipPath></defs></svg>