<svg width="76" height="89" fill="none" xmlns="http://www.w3.org/2000/svg"><path d="M52.999 58.108c1.627 6.854-2.986 10.297-6.761 10.63-2.802.25-5.168-.715-6.946-2.911-1.762-2.163-2.097-4.642-1.41-7.403h-8.455c.688 3.077.235 5.856-2.064 8.101-1.576 1.547-3.523 2.313-5.77 2.23-2.635-.084-4.715-1.248-6.259-3.328-1.56-2.096-1.526-4.491-1.157-7.003-.973-.183-1.896-.067-2.802-.1-2.114-.066-3.389-2.163-2.382-3.96.503-.88 1.275-1.313 2.348-1.313 6.93.016 13.875 0 20.804 0H50.18c1.007 0 1.88-.267 2.517-1.082.553-.715.822-1.497.453-2.395-.42-1.015-1.158-1.58-2.265-1.714-3.456-.449-6.912-.865-10.352-1.397-2.415-.366-4.865-.599-7.297-.932-2.4-.316-4.799-.682-7.198-.998-2.516-.333-5.033-.632-7.55-.965-2.566-.332-5.133-.665-7.7-1.048-1.057-.166-1.728-.881-2.03-1.88-1.762-5.772-3.49-11.578-5.235-17.384-.855-2.86-1.761-5.706-2.667-8.55-.504-1.547.553-3.277 2.18-3.427.554-.05 1.125-.05 1.678-.05 17.734 0 35.45-.017 53.184.017.822 0 1.241-.217 1.543-.999 1.862-4.94 5.453-7.968 10.587-9.249.905-.233 1.811-.3 2.734-.3 1.56-.016 2.92 1.115 3.037 2.53.1 1.363-1.124 2.694-2.735 2.81-1.241.084-2.432.217-3.59.716-2.768 1.214-4.446 3.327-5.352 6.139-1.359 4.192-2.735 8.367-4.11 12.543-1.493 4.574-3.004 9.15-4.497 13.724a104.313 104.313 0 0 1-1.09 3.227c-.218.6-.118.998.47 1.381 2.768 1.813 4.026 4.408 3.64 7.669-.369 2.994-2.063 5.057-4.831 6.288-.235.117-.47.25-.705.383Zm-6.594-41.606c-1.728 0-3.389.017-5.066-.016-.671-.017-.906.2-.956.898-.084 1.763-.269 3.527-.437 5.29-.218 2.446-.503 4.891-.688 7.353-.218 2.928-.486 5.84-.738 8.767-.201 2.18-.352 2.213 1.812 2.362.705.05.94-.15 1.074-.782.57-2.695 1.191-5.39 1.778-8.101.906-4.126 1.829-8.251 2.668-12.394.235-1.048.604-2.079.553-3.377Zm-11.408.167c-.302-.2-.638-.167-.973-.167-1.208 0-2.4.05-3.607-.016-.839-.05-1.14.216-1.09 1.081.217 3.144.15 6.305.368 9.466.269 3.643.168 7.303.453 10.962.151 1.88.101 1.847 1.93 2.08.772.1 1.023-.2 1.107-.898.269-2.363.436-4.742.62-7.104.286-3.676.706-7.32.907-10.996.1-1.48.52-2.928.285-4.408Zm19.63-.15c0-.017 0-.017 0 0-.387-.017-.79-.017-1.175-.017-1.477 0-1.46.034-1.762 1.464a977.567 977.567 0 0 1-2.5 11.762c-.822 3.81-1.677 7.602-2.516 11.412-.1.465-.017.815.553.898.303.033.588.15.907.2.47.066.788-.034.939-.583.218-.798.52-1.58.772-2.362 1.241-3.76 2.483-7.52 3.708-11.262 1.19-3.593 2.365-7.187 3.556-10.797.151-.449.017-.715-.486-.715-.655-.017-1.326 0-1.997 0Zm-36.726 0c.89 4.675 1.745 9.15 2.617 13.625.504 2.595.99 5.206 1.494 7.802.067.349.084.748.57.815.705.1 1.426.216 2.114.316.252-.35.184-.699.168-1.015-.353-3.693-.218-7.403-.504-11.112-.251-3.194-.1-6.422-.386-9.616-.033-.35.017-.798-.503-.798-1.812-.034-3.624-.017-5.57-.017Zm-1.426 21.477c-.084-1.598-.486-2.928-.738-4.276-.453-2.495-.906-5.007-1.376-7.502-.486-2.579-1.023-5.14-1.46-7.736-.318-1.913-.318-1.98-2.247-1.98H8.137c-.302 0-.62-.05-.923.233.151 1.032.537 2.046.856 3.061 1.711 5.69 3.44 11.379 5.15 17.085.084.283.168.599.453.649.873.183 1.779.3 2.802.465ZM21.81 58.34c-1.442.016-2.55 1.098-2.516 2.528.033 1.747 1.19 2.529 2.567 2.612 1.375.083 2.533-1.164 2.55-2.562.016-1.414-1.158-2.595-2.6-2.578Zm26.206 2.528c-.017-1.414-1.107-2.528-2.533-2.528-1.426-.017-2.651 1.197-2.617 2.578.033 1.348 1.258 2.579 2.566 2.595 1.376.017 2.584-1.23 2.584-2.645Zm5.637 24.904c0 1.264-.721 2.262-1.745 2.545-1.342.366-2.583-.067-3.238-1.264-1.258-2.28-2.885-4.193-4.982-5.74-3.238-2.378-6.913-3.56-10.906-3.293-6.257.432-11.022 3.426-14.143 8.866-.922 1.614-2.801 2.046-4.11.982-.973-.782-1.275-2.23-.637-3.394 2.634-4.84 6.543-8.284 11.693-10.314 2.567-1.015 5.268-1.647 8.003-1.547 8.69.316 15.35 4.159 19.713 11.711.268.5.42.982.352 1.448Z" fill="#70A177"/></svg>