<svg width="37" height="34" viewBox="0 0 37 34" xmlns="http://www.w3.org/2000/svg" xmlns:xlink="http://www.w3.org/1999/xlink">
    <path id="path1" fill="#ffffff" fill-rule="evenodd" stroke="none" d="M 35.1329 26.301994 C 34.284901 25.453995 33.252899 25.029995 32.0369 25.029995 C 31.4447 25.029995 30.894632 25.133463 30.3867 25.340397 C 29.995832 25.499662 29.6299 25.720196 29.2889 26.001995 C 28.512899 26.649994 28.020901 27.477997 27.812901 28.485996 L 26.564899 28.485996 L 26.564899 25.197994 L 24.908899 25.197994 L 24.908899 33.597996 L 26.564899 33.597996 L 26.564899 30.069996 L 27.776899 30.069996 C 27.866234 30.66853 28.054068 31.208462 28.340401 31.689793 C 28.566935 32.07053 28.855101 32.414597 29.204901 32.721996 C 29.563101 33.033596 29.950134 33.275463 30.365999 33.447594 C 30.879066 33.659863 31.436033 33.765995 32.0369 33.765995 C 33.252899 33.765995 34.284901 33.341995 35.1329 32.493996 C 35.536835 32.090065 35.844566 31.644396 36.056099 31.156994 C 36.288631 30.621128 36.4049 30.034796 36.4049 29.397995 C 36.4049 28.734129 36.280167 28.126728 36.030701 27.575794 C 35.820232 27.110996 35.520966 26.686396 35.1329 26.301994 Z M 9 33.597996 L 9 25.197994 L 7.296 25.197994 L 4.896 29.169994 L 2.484 25.197994 L 0.78 25.197994 L 0.78 33.597996 L 2.436 33.597996 L 2.436 28.161995 L 4.8 32.049995 L 4.992 32.049995 L 7.356 28.149994 L 7.356 33.597996 L 9 33.597996 Z M 15.7612 32.013996 L 12.2212 32.013996 L 12.2212 30.129997 L 15.4012 30.129997 L 15.4012 28.569996 L 12.2212 28.569996 L 12.2212 26.781994 L 15.7012 26.781994 L 15.7012 25.197994 L 10.5652 25.197994 L 10.5652 33.597996 L 15.7612 33.597996 L 15.7612 32.013996 Z M 23.3484 25.197994 L 21.704399 25.197994 L 21.704399 28.533997 L 18.5844 28.533997 L 18.5844 25.197994 L 16.9284 25.197994 L 16.9284 33.597996 L 18.5844 33.597996 L 18.5844 30.117996 L 21.704399 30.117996 L 21.704399 33.597996 L 23.3484 33.597996 L 23.3484 25.197994 Z M 32.0369 32.145996 C 31.2689 32.145996 30.624901 31.889996 30.1049 31.377995 C 29.5849 30.857994 29.3249 30.197994 29.3249 29.397995 C 29.3249 28.827129 29.450199 28.330629 29.7008 27.908497 C 29.808399 27.727295 29.9391 27.559795 30.092899 27.405994 C 30.6129 26.893997 31.2609 26.637997 32.0369 26.637997 C 32.804901 26.637997 33.448898 26.897995 33.968899 27.417995 C 34.488899 27.937996 34.748901 28.597996 34.748901 29.397995 C 34.748901 30.197994 34.488899 30.857994 33.968899 31.377995 C 33.448898 31.889996 32.804901 32.145996 32.0369 32.145996 Z"/>
    <path id="Rectangle-113" fill="#65906c" stroke="none" d="M 6.5 14.212896 L 28.5 14.212896 C 29.328426 14.212896 30 14.884468 30 15.712896 L 30 15.712896 C 30 16.541323 29.328426 17.212896 28.5 17.212896 L 6.5 17.212896 C 5.671573 17.212896 5 16.541323 5 15.712896 L 5 15.712896 C 5 14.884468 5.671573 14.212896 6.5 14.212896 Z"/>
    <path id="Rectangle-114" fill="#65906c" stroke="none" d="M 6.5 7.212896 L 28.5 7.212896 C 29.328426 7.212896 30 7.884468 30 8.712896 L 30 8.712896 C 30 9.541323 29.328426 10.212896 28.5 10.212896 L 6.5 10.212896 C 5.671573 10.212896 5 9.541323 5 8.712896 L 5 8.712896 C 5 7.884468 5.671573 7.212896 6.5 7.212896 Z"/>
    <path id="Rectangle-115" fill="#65906c" stroke="none" d="M 6.5 0.212894 L 28.5 0.212894 C 29.328426 0.212894 30 0.884468 30 1.712894 L 30 1.712894 C 30 2.541321 29.328426 3.212894 28.5 3.212894 L 6.5 3.212894 C 5.671573 3.212894 5 2.541321 5 1.712894 L 5 1.712894 C 5 0.884468 5.671573 0.212894 6.5 0.212894 Z"/>
</svg>
