<svg xmlns="http://www.w3.org/2000/svg" width="14" height="14" fill="none"><path stroke="#fff" stroke-linecap="round" stroke-linejoin="round" d="M.993 2.249c.211-.35 1.374-1.62 2.202-1.581.248.02.467.17.645.344h0c.409.4 1.58 1.909 1.646 2.226.162.78-.767 1.229-.483 2.014.724 1.772 1.972 3.02 3.746 3.744.784.285 1.234-.644 2.013-.482.317.066 1.827 1.236 2.226 1.645v0c.174.177.324.397.345.645.03.873-1.318 2.051-1.581 2.202-.62.444-1.43.436-2.416-.023-2.754-1.145-7.153-5.462-8.32-8.319C.569 3.684.539 2.87.993 2.25Z" clip-rule="evenodd"/><path stroke="#fff" stroke-linecap="round" stroke-linejoin="round" d="M8.71.833a5.314 5.314 0 0 1 4.694 4.688M8.71 3.195a2.95 2.95 0 0 1 2.332 2.332"/></svg>