<svg width="98" height="112" fill="none" xmlns="http://www.w3.org/2000/svg"><path d="M47.8 32.8V44h-2.56v-6.512l-2.895 4.752h-.288l-2.896-4.752V44H36.6V32.8h2.56l3.04 4.976 3.04-4.976h2.56ZM49.727 44V32.8h2.56v3.52h1.68c1.098 0 2.026.373 2.784 1.12.757.747 1.136 1.653 1.136 2.72 0 1.067-.379 1.973-1.136 2.72-.758.747-1.686 1.12-2.784 1.12h-4.24Zm9.12 0V32.8h2.56V44h-2.56Zm-6.56-2.4h1.68c.394 0 .72-.139.976-.416.256-.277.384-.619.384-1.024s-.128-.747-.384-1.024a1.27 1.27 0 0 0-.976-.416h-1.68v2.88ZM29.128 58.208c1.013.565 1.52 1.44 1.52 2.624 0 1.024-.39 1.845-1.168 2.464-.779.619-1.77.928-2.976.928-2.102 0-3.52-.885-4.256-2.656l2.208-1.264c.341 1.013 1.024 1.52 2.048 1.52 1.056 0 1.584-.395 1.584-1.184 0-.79-.534-1.184-1.6-1.184h-1.424v-2.272h1.104c1.013 0 1.52-.368 1.52-1.104 0-.736-.432-1.104-1.296-1.104-.832 0-1.424.427-1.776 1.28l-2.192-1.264c.81-1.61 2.133-2.416 3.968-2.416 1.13 0 2.053.304 2.768.912.725.597 1.088 1.397 1.088 2.4 0 .97-.373 1.744-1.12 2.32Zm11.593 3.328h1.2v4.608h-2.56V64h-5.6v2.144H31.2v-4.608h1.136c.587-.843.88-2.08.88-3.712V52.8h7.504v8.736Zm-5.664 0h3.104V55.2h-2.384v2.656c0 1.59-.24 2.816-.72 3.68Zm10.783 0h4.48V64h-7.04V52.8h6.96v2.464h-4.4v1.856h4v2.432h-4v1.984Zm11.19 2.688c-1.674 0-3.066-.555-4.175-1.664-1.1-1.12-1.648-2.507-1.648-4.16s.549-3.035 1.648-4.144c1.109-1.12 2.5-1.68 4.176-1.68 1.002 0 1.93.235 2.784.704a5.21 5.21 0 0 1 2.016 1.888l-2.208 1.28a2.473 2.473 0 0 0-1.056-1.008 3.205 3.205 0 0 0-1.536-.368c-.992 0-1.787.304-2.384.912-.587.608-.88 1.413-.88 2.416s.293 1.808.88 2.416c.597.608 1.392.912 2.384.912.565 0 1.077-.123 1.536-.368.469-.245.82-.581 1.056-1.008l2.208 1.28a5.208 5.208 0 0 1-2 1.904 5.82 5.82 0 0 1-2.8.688Zm10.24-7.904c1.099 0 2.027.373 2.784 1.12.758.747 1.136 1.653 1.136 2.72 0 1.067-.378 1.973-1.136 2.72-.757.747-1.685 1.12-2.784 1.12h-4.24V52.8h2.56v3.52h1.68Zm0 5.28c.395 0 .72-.139.976-.416.256-.277.384-.619.384-1.024s-.128-.747-.384-1.024a1.27 1.27 0 0 0-.976-.416h-1.68v2.88h1.68Zm5.518-1.6-.48-4v-3.2h2.88V56l-.48 4h-1.92Zm2.032 3.776a1.463 1.463 0 0 1-1.072.448c-.416 0-.773-.15-1.072-.448a1.463 1.463 0 0 1-.448-1.072c0-.416.15-.773.448-1.072a1.463 1.463 0 0 1 1.072-.448c.416 0 .773.15 1.072.448.299.299.448.656.448 1.072 0 .416-.15.773-.448 1.072Z" fill="#fff"/><path d="M48.5 112 36.809 96.25H60.19L48.5 112Z" fill="#6D9B74"/><circle cx="49" cy="49" r="49" fill="url(#a)"/><defs><linearGradient id="a" x1="4.742" y1="5.568" x2="109.682" y2="54.338" gradientUnits="userSpaceOnUse"><stop stop-color="#618967"/><stop offset="1" stop-color="#72A479"/></linearGradient></defs></svg>